HIERARCHY
ROOT Hips
{
 OFFSET 0.000000 0.000000 0.000000
 CHANNELS 6 Xposition Yposition Zposition Yrotation Xrotation Zrotation
 JOINT Chest
 {
  OFFSET 0.000000 9.585900 0.002600
  CHANNELS 3 Yrotation Xrotation Zrotation
  JOINT Chest2
  {
   OFFSET 0.000000 9.601200 -0.005300
   CHANNELS 3 Yrotation Xrotation Zrotation
   JOINT Chest3
   {
    OFFSET 0.000000 9.561800 0.000000
    CHANNELS 3 Yrotation Xrotation Zrotation
    JOINT Chest4
    {
     OFFSET 0.000000 9.552100 0.000000
     CHANNELS 3 Yrotation Xrotation Zrotation
     JOINT Neck
     {
      OFFSET 0.000000 14.453000 0.000000
      CHANNELS 3 Yrotation Xrotation Zrotation
      JOINT Head
      {
       OFFSET 0.000000 8.936500 -0.011300
       CHANNELS 3 Yrotation Xrotation Zrotation
       End Site
       {
        OFFSET 0.000000 17.073600 -0.006000
       }
      }
     }
     JOINT RightCollar
     {
      OFFSET -2.921100 9.558500 0.000000
      CHANNELS 3 Yrotation Xrotation Zrotation
      JOINT RightShoulder
      {
       OFFSET -13.519700 0.000000 0.000000
       CHANNELS 3 Yrotation Xrotation Zrotation
       JOINT RightElbow
       {
        OFFSET 0.000000 -29.696600 0.000000
        CHANNELS 3 Yrotation Xrotation Zrotation
        JOINT RightWrist
        {
         OFFSET 0.000000 -24.004700 0.000000
         CHANNELS 3 Yrotation Xrotation Zrotation
         End Site
         {
          OFFSET 0.000000 -17.728500 0.000000
         }
        }
       }
      }
     }
     JOINT LeftCollar
     {
      OFFSET 2.921100 9.558500 0.000000
      CHANNELS 3 Yrotation Xrotation Zrotation
      JOINT LeftShoulder
      {
       OFFSET 13.519700 0.000000 0.000000
       CHANNELS 3 Yrotation Xrotation Zrotation
       JOINT LeftElbow
       {
        OFFSET 0.000000 -29.696600 0.000000
        CHANNELS 3 Yrotation Xrotation Zrotation
        JOINT LeftWrist
        {
         OFFSET 0.000000 -24.004700 0.000000
         CHANNELS 3 Yrotation Xrotation Zrotation
         End Site
         {
          OFFSET 0.000000 -17.728500 0.000000
         }
        }
       }
      }
     }
    }
   }
  }
 }
 JOINT RightHip
 {
  OFFSET -7.771700 -0.012900 -0.001300
  CHANNELS 3 Yrotation Xrotation Zrotation
  JOINT RightKnee
  {
   OFFSET 0.000000 -40.869800 0.001200
   CHANNELS 3 Yrotation Xrotation Zrotation
   JOINT RightAnkle
   {
    OFFSET 0.000000 -39.717900 0.002100
    CHANNELS 3 Yrotation Xrotation Zrotation
    JOINT RightToe
    {
     OFFSET 0.000000 -4.965400 11.033500
     CHANNELS 3 Yrotation Xrotation Zrotation
     End Site
     {
      OFFSET 0.000000 -1.423100 5.872300
     }
    }
   }
  }
 }
 JOINT LeftHip
 {
  OFFSET 7.771700 -0.012900 -0.001300
  CHANNELS 3 Yrotation Xrotation Zrotation
  JOINT LeftKnee
  {
   OFFSET 0.000000 -40.869800 0.001200
   CHANNELS 3 Yrotation Xrotation Zrotation
   JOINT LeftAnkle
   {
    OFFSET 0.000000 -39.717900 0.002100
    CHANNELS 3 Yrotation Xrotation Zrotation
    JOINT LeftToe
    {
     OFFSET 0.000000 -4.965400 11.033500
     CHANNELS 3 Yrotation Xrotation Zrotation
     End Site
     {
      OFFSET 0.000000 -1.423100 5.872300
     }
    }
   }
  }
 }
}
MOTION
Frames: 5
Frame Time: 0.008333
-167.178189 49.200253 17.136178 175.335028 -32.218394 -3.405211 0.917006 19.427558 2.228729 0.098883 2.358224 0.206662 0.128887 3.886020 0.342880 0.731357 16.851078 1.590333 4.873481 18.595117 -2.065201 9.625253 -0.963137 -5.376773 -1.722316 -3.640121 -2.172357 6.438964 -8.555016 -14.118732 -36.946689 -44.435122 90.156703 3.936409 4.071286 -11.576890 -0.905874 -2.893265 2.255533 -6.209638 -2.942192 13.944551 69.390137 -66.301426 -108.205240 2.952533 7.162954 5.604015 -4.318941 -52.371263 -5.116592 167.366121 83.123242 -179.920691 -29.061531 -3.303103 -4.409982 0.014734 -12.869138 -0.051455 -12.169199 -54.437355 19.611280 -73.258800 65.085618 -78.694442 30.835530 7.501779 16.542469 0.092041 -0.406394 0.005488
-167.173206 49.203390 17.134554 175.300893 -32.238511 -3.385231 0.925651 19.449621 2.221264 0.069037 2.365062 0.207986 0.134765 3.890400 0.342270 0.767321 16.841087 1.583847 4.867475 18.598361 -2.058836 9.591836 -0.941805 -5.319385 -1.742267 -3.635086 -2.162108 6.448061 -8.567772 -14.147603 -36.950938 -44.439628 90.164582 3.949022 4.079783 -11.563531 -0.938520 -2.889552 2.267181 -6.190953 -2.943968 13.931297 69.371754 -66.302806 -108.205546 2.982845 7.197649 5.637913 -4.338660 -52.356278 -5.091262 167.302096 83.124789 -179.996472 -29.085379 -3.302022 -4.420671 0.025253 -12.878842 -0.057477 -12.194823 -54.408427 19.626153 -73.269893 65.100750 -78.718606 30.853905 7.484351 16.528476 0.079624 -0.405256 -0.003631
-167.167804 49.205306 17.135072 175.251439 -32.243989 -3.368686 0.963640 19.453794 2.229760 0.051097 2.365830 0.209128 0.152404 3.890501 0.340457 0.744660 16.850043 1.588082 4.879436 18.595261 -2.064997 9.582621 -0.933892 -5.301789 -1.738028 -3.636154 -2.162597 6.460943 -8.582307 -14.176068 -36.959950 -44.437692 90.171710 3.957625 4.084446 -11.554930 -0.946758 -2.892464 2.267076 -6.174005 -2.946453 13.917975 69.349826 -66.308920 -108.199102 2.993488 7.197216 5.672024 -4.333759 -52.354657 -5.069453 167.265206 83.129812 179.973316 -29.095258 -3.300870 -4.436529 0.018226 -12.885057 -0.059344 -12.179710 -54.400963 19.647006 -73.284014 65.102618 -78.731647 30.865230 7.484277 16.523734 0.054884 -0.422964 0.005716
-167.163629 49.207438 17.135051 175.225212 -32.250924 -3.364897 0.963482 19.459700 2.234124 0.053808 2.366533 0.207135 0.148969 3.894378 0.343347 0.742280 16.855513 1.589671 4.878782 18.598293 -2.062764 9.588961 -0.931896 -5.306195 -1.717881 -3.642346 -2.174227 6.457686 -8.586161 -14.192976 -36.972606 -44.435492 90.181740 3.963778 4.094844 -11.557038 -0.957102 -2.895152 2.265071 -6.178064 -2.950496 13.904803 69.329404 -66.318156 -108.172676 3.016941 7.243752 5.704292 -4.330743 -52.346163 -5.062527 167.060038 83.132760 179.783601 -29.112879 -3.303704 -4.453698 -0.003741 -12.888998 -0.054216 -12.183059 -54.392078 19.667240 -73.302221 65.106065 -78.748316 30.862779 7.478979 16.521908 0.057967 -0.423087 -0.002497
-167.161261 49.209897 17.134211 175.205022 -32.262234 -3.360784 0.960827 19.468665 2.232988 0.054884 2.369102 0.208739 0.127571 3.897908 0.344651 0.761393 16.857377 1.586782 4.879606 18.601848 -2.058215 9.600240 -0.933986 -5.319700 -1.721542 -3.640566 -2.166961 6.458675 -8.591861 -14.222317 -36.969346 -44.432243 90.203854 3.963806 4.095500 -11.573981 -0.970403 -2.895540 2.266541 -6.183277 -2.950878 13.895079 69.308409 -66.331062 -108.149712 3.025316 7.243137 5.727323 -4.324927 -52.334520 -5.057978 166.922112 83.132884 179.650848 -29.117870 -3.302617 -4.460117 0.003143 -12.892761 -0.057416 -12.191577 -54.375928 19.680182 -73.319468 65.109815 -78.764671 30.861144 7.465315 16.512193 0.055639 -0.420343 -0.001477
